<svg width="11" height="11" viewBox="0 0 11 11" fill="none" xmlns="http://www.w3.org/2000/svg">
<path d="M3.30823 11C3.0296 11 2.79208 10.9027 2.59565 10.708C2.39922 10.5133 2.30101 10.2792 2.30101 10.0058C2.30101 9.73244 2.40021 9.49937 2.59862 9.30663C2.79704 9.11389 3.03556 9.01752 3.31418 9.01752C3.59281 9.01752 3.83033 9.11487 4.02676 9.30955C4.22319 9.50425 4.3214 9.73829 4.3214 10.0117C4.3214 10.2851 4.2222 10.5181 4.02379 10.7109C3.82537 10.9036 3.58685 11 3.30823 11ZM8.92044 11C8.64181 11 8.40429 10.9027 8.20786 10.708C8.01143 10.5133 7.91322 10.2792 7.91322 10.0058C7.91322 9.73244 8.01242 9.49937 8.21083 9.30663C8.40925 9.11389 8.64777 9.01752 8.92639 9.01752C9.20502 9.01752 9.44255 9.11487 9.63897 9.30955C9.8354 9.50425 9.93361 9.73829 9.93361 10.0117C9.93361 10.2851 9.83441 10.5181 9.636 10.7109C9.43758 10.9036 9.19906 11 8.92044 11ZM2.58162 1.91364L4.12498 5.05257H8.16577L9.91958 1.91364H2.58162ZM2.1607 1.08761H10.4257C10.6405 1.08761 10.8039 1.18398 10.916 1.37672C11.0281 1.56946 11.028 1.7622 10.9158 1.95494L9.02163 5.30038C8.91874 5.47476 8.78517 5.61473 8.62093 5.72028C8.45668 5.82582 8.2769 5.8786 8.08158 5.8786H3.83033L3.04462 7.31039H9.93361V8.13642H3.1709C2.77804 8.13642 2.4951 8.00793 2.32205 7.75094C2.14901 7.49395 2.15135 7.20484 2.32907 6.88361L3.22702 5.25907L1.09438 0.826033H0V0H1.64157L2.1607 1.08761Z" fill="#727272"/>
</svg>
