<svg width="19" height="19" viewBox="0 0 19 19" fill="none" xmlns="http://www.w3.org/2000/svg">
<path d="M5.71422 19C5.23295 19 4.82268 18.8319 4.48339 18.4956C4.14411 18.1593 3.97447 17.755 3.97447 17.2828C3.97447 16.8106 4.14582 16.408 4.48853 16.0751C4.83125 15.7422 5.24324 15.5757 5.72449 15.5757C6.20576 15.5757 6.61603 15.7439 6.95532 16.0801C7.2946 16.4164 7.46424 16.8207 7.46424 17.2929C7.46424 17.7651 7.29289 18.1677 6.95018 18.5006C6.60745 18.8335 6.19547 19 5.71422 19ZM15.408 19C14.9268 19 14.5165 18.8319 14.1772 18.4956C13.8379 18.1593 13.6683 17.755 13.6683 17.2828C13.6683 16.8106 13.8396 16.408 14.1824 16.0751C14.5251 15.7422 14.9371 15.5757 15.4183 15.5757C15.8996 15.5757 16.3099 15.7439 16.6491 16.0801C16.9884 16.4164 17.1581 16.8207 17.1581 17.2929C17.1581 17.7651 16.9867 18.1677 16.644 18.5006C16.3013 18.8335 15.8893 19 15.408 19ZM4.45916 3.30538L7.12496 8.72716H14.1045L17.1338 3.30538H4.45916ZM3.73212 1.8786H18.0081C18.3791 1.8786 18.6614 2.04506 18.8549 2.37797C19.0485 2.71089 19.0484 3.04381 18.8545 3.37672L15.5828 9.1552C15.4051 9.4564 15.1744 9.69816 14.8907 9.88048C14.607 10.0628 14.2965 10.1539 13.9591 10.1539H6.61603L5.2589 12.627H17.1581V14.0538H5.47701C4.79844 14.0538 4.30971 13.8319 4.01082 13.388C3.71193 12.9441 3.71596 12.4447 4.02293 11.8899L5.57395 9.08386L1.89029 1.42678H0V0H2.83544L3.73212 1.8786Z" fill="black"/>
</svg>
