<svg width="23" height="21" viewBox="0 0 23 21" fill="none" xmlns="http://www.w3.org/2000/svg">
<path d="M11.5833 20.4521L10.4729 19.45C8.56322 17.6964 6.9844 16.1837 5.73647 14.9119C4.48855 13.6401 3.49444 12.5031 2.75417 11.501C2.01389 10.499 1.49479 9.59167 1.19687 8.77917C0.898958 7.96667 0.75 7.14514 0.75 6.31459C0.75 4.68679 1.29618 3.32741 2.38854 2.23646C3.4809 1.14549 4.83056 0.600006 6.4375 0.600006C7.46667 0.600006 8.4191 0.843756 9.29479 1.33126C10.1705 1.81876 10.9333 2.52292 11.5833 3.44376C12.3417 2.46876 13.1451 1.75105 13.9937 1.29063C14.8424 0.830214 15.7542 0.600006 16.7292 0.600006C18.3361 0.600006 19.6858 1.14549 20.7781 2.23646C21.8705 3.32741 22.4167 4.68679 22.4167 6.31459C22.4167 7.14514 22.2677 7.96667 21.9698 8.77917C21.6719 9.59167 21.1528 10.499 20.4125 11.501C19.6722 12.5031 18.6781 13.6401 17.4302 14.9119C16.1823 16.1837 14.6034 17.6964 12.6937 19.45L11.5833 20.4521ZM11.5833 18.3125C13.4112 16.6334 14.9154 15.1935 16.0959 13.9928C17.2764 12.792 18.2142 11.7403 18.9094 10.8375C19.6045 9.93473 20.092 9.13004 20.3719 8.42343C20.6517 7.71681 20.7917 7.01517 20.7917 6.31852C20.7917 5.12423 20.4125 4.14341 19.6542 3.37605C18.8958 2.60869 17.9229 2.22501 16.7353 2.22501C15.805 2.22501 14.9439 2.50938 14.1522 3.07813C13.3604 3.64688 12.7208 4.44584 12.2333 5.47501H10.9062C10.4368 4.46389 9.80621 3.66945 9.01448 3.09167C8.22272 2.51389 7.3617 2.22501 6.43141 2.22501C5.2438 2.22501 4.27083 2.60869 3.5125 3.37605C2.75417 4.14341 2.375 5.12578 2.375 6.32315C2.375 7.02161 2.51493 7.72744 2.79479 8.44063C3.07465 9.15382 3.56215 9.96632 4.25729 10.8781C4.95243 11.7899 5.89583 12.8417 7.0875 14.0333C8.27917 15.225 9.77778 16.6514 11.5833 18.3125Z" fill="black"/>
</svg>
