<svg width="16" height="14" viewBox="0 0 16 14" fill="none" xmlns="http://www.w3.org/2000/svg">
<path d="M8.19995 13.6802L7.4312 13.025C6.1091 11.8784 5.01608 10.8894 4.15213 10.0578C3.28818 9.2262 2.59995 8.48281 2.08745 7.8276C1.57495 7.17239 1.21558 6.57916 1.00933 6.04791C0.803076 5.51666 0.699951 4.97951 0.699951 4.43645C0.699951 3.37213 1.07808 2.4833 1.83433 1.76999C2.59058 1.05666 3.52495 0.699997 4.63745 0.699997C5.34995 0.699997 6.00933 0.859372 6.61558 1.17812C7.22183 1.49687 7.74995 1.95729 8.19995 2.55937C8.72495 1.92187 9.2812 1.4526 9.8687 1.15156C10.4562 0.850518 11.0875 0.699997 11.7625 0.699997C12.875 0.699997 13.8093 1.05666 14.5656 1.76999C15.3218 2.4833 15.7 3.37213 15.7 4.43645C15.7 4.97951 15.5968 5.51666 15.3906 6.04791C15.1843 6.57916 14.825 7.17239 14.3125 7.8276C13.8 8.48281 13.1117 9.2262 12.2478 10.0578C11.3838 10.8894 10.2908 11.8784 8.9687 13.025L8.19995 13.6802ZM8.19995 12.2812C9.4654 11.1834 10.5068 10.2419 11.324 9.4568C12.1413 8.67171 12.7906 7.98402 13.2718 7.39375C13.7531 6.80347 14.0906 6.27732 14.2843 5.81531C14.4781 5.35329 14.575 4.89453 14.575 4.43902C14.575 3.65814 14.3125 3.01684 13.7875 2.5151C13.2625 2.01336 12.5889 1.7625 11.7667 1.7625C11.1226 1.7625 10.5265 1.94843 9.97839 2.32031C9.43026 2.69218 8.98745 3.21458 8.64995 3.8875H7.7312C7.4062 3.22639 6.96964 2.70694 6.42151 2.32916C5.87338 1.95139 5.27728 1.7625 4.63323 1.7625C3.81104 1.7625 3.13745 2.01336 2.61245 2.5151C2.08745 3.01684 1.82495 3.65915 1.82495 4.44205C1.82495 4.89874 1.92183 5.36024 2.11558 5.82656C2.30933 6.29288 2.64683 6.82413 3.12808 7.42031C3.60933 8.01649 4.26245 8.70416 5.08745 9.48333C5.91245 10.2625 6.94995 11.1951 8.19995 12.2812Z" fill="#727272"/>
</svg>
