<svg width="20" height="17" viewBox="0 0 20 17" fill="none" xmlns="http://www.w3.org/2000/svg">
<path d="M10.0333 16.9979L9.05099 16.15C7.36164 14.6662 5.965 13.3862 4.86106 12.3101C3.75713 11.2339 2.87773 10.2719 2.22287 9.42395C1.56801 8.57604 1.10881 7.80833 0.845264 7.12083C0.581722 6.43333 0.449951 5.73819 0.449951 5.03541C0.449951 3.65805 0.933111 2.5078 1.89943 1.58469C2.86575 0.661562 4.05967 0.199997 5.4812 0.199997C6.39162 0.199997 7.23415 0.406247 8.00881 0.818747C8.78346 1.23125 9.45828 1.82708 10.0333 2.60625C10.7041 1.78125 11.4149 1.17396 12.1656 0.784372C12.9163 0.394789 13.7229 0.199997 14.5854 0.199997C16.0069 0.199997 17.2008 0.661562 18.1671 1.58469C19.1335 2.5078 19.6166 3.65805 19.6166 5.03541C19.6166 5.73819 19.4848 6.43333 19.2213 7.12083C18.9578 7.80833 18.4986 8.57604 17.8437 9.42395C17.1888 10.2719 16.3094 11.2339 15.2055 12.3101C14.1016 13.3862 12.7049 14.6662 11.0156 16.15L10.0333 16.9979ZM10.0333 15.1875C11.6502 13.7667 12.9809 12.5484 14.0252 11.5323C15.0695 10.5163 15.8991 9.62638 16.514 8.8625C17.1289 8.09861 17.5602 7.41771 17.8078 6.81982C18.0553 6.22191 18.1791 5.62821 18.1791 5.03874C18.1791 4.02819 17.8437 3.19826 17.1729 2.54895C16.502 1.89965 15.6413 1.575 14.5908 1.575C13.7678 1.575 13.0061 1.81562 12.3057 2.29687C11.6053 2.77812 11.0395 3.45416 10.6083 4.325H9.43433C9.01905 3.46944 8.46122 2.79722 7.76084 2.30833C7.06044 1.81944 6.29876 1.575 5.47581 1.575C4.42524 1.575 3.56453 1.89965 2.8937 2.54895C2.22287 3.19826 1.88745 4.02949 1.88745 5.04265C1.88745 5.63366 2.01124 6.2309 2.25881 6.83437C2.50637 7.43784 2.93762 8.12534 3.55256 8.89687C4.16749 9.6684 5.00203 10.5583 6.0562 11.5667C7.11037 12.575 8.43606 13.7819 10.0333 15.1875Z" fill="black"/>
</svg>
