<svg width="29" height="21" viewBox="0 0 29 21" fill="none" xmlns="http://www.w3.org/2000/svg">
<path d="M1.71167 11.4175V9.57686C1.71167 5.8108 1.71167 3.92779 2.88946 2.7162C4.06727 1.50461 5.92155 1.45217 9.63009 1.34728C11.3874 1.29758 13.1825 1.26196 14.7189 1.26196C16.2553 1.26196 18.0505 1.29758 19.8078 1.34728C23.5163 1.45217 25.3706 1.50461 26.5484 2.7162C27.7262 3.92779 27.7262 5.8108 27.7262 9.57686V11.4175C27.7262 15.1835 27.7262 17.0666 26.5484 18.2781C25.3706 19.4897 23.5164 19.5421 19.8079 19.6471C18.0505 19.6968 16.2553 19.7324 14.7189 19.7324C13.1825 19.7324 11.3873 19.6968 9.62997 19.6471C5.92148 19.5421 4.06725 19.4897 2.88945 18.2781C1.71167 17.0666 1.71167 15.1835 1.71167 11.4175Z" fill="#2C2B2A" stroke="#2C2B2A" stroke-width="2.03978"/>
<path d="M11.2768 6.56003C11.2768 5.42531 12.5071 4.71905 13.4875 5.29009L20.1128 9.15577C21.0851 9.72239 21.0851 11.1276 20.1128 11.6949L13.4875 15.5591C12.5071 16.1309 11.2768 15.4246 11.2768 14.2907V6.56003ZM19.372 10.425L12.7467 6.56003V14.2907L19.372 10.425Z" fill="white"/>
<path d="M19.7486 10.445L12.7442 14.9991L12.6671 6.0117L19.7486 10.445Z" fill="white"/>
</svg>
