<svg width="21" height="19" viewBox="0 0 21 19" fill="none" xmlns="http://www.w3.org/2000/svg">
<path d="M19.25 9.75C19.25 14.5817 15.3317 18.5 10.5 18.5C5.66825 18.5 1.75 14.5817 1.75 9.75C1.75 4.91825 5.66825 1 10.5 1C15.3317 1 19.25 4.91825 19.25 9.75Z" fill="#B2FCE3"/>
<path d="M10.4617 14.2947C10.1494 14.4638 9.80287 14.5469 9.45944 14.5469C9.12212 14.5469 8.78831 14.4693 8.48162 14.3086L5.34956 12.6726C4.72744 12.348 4.36256 11.7658 4.37481 11.1142C4.38706 10.4654 4.77031 9.89149 5.40469 9.5863L8.4265 8.11934C9.04556 7.8197 9.76569 7.82247 10.3511 8.12766C10.9058 8.41899 11.2519 8.94822 11.2737 9.54474C11.286 9.92751 10.9548 10.2489 10.5322 10.26C10.0969 10.2711 9.75387 9.97145 9.74162 9.58907C9.73856 9.46993 9.68344 9.38126 9.58544 9.32861C9.46294 9.26488 9.30062 9.27043 9.15012 9.34247L6.12831 10.8063C5.93231 10.9032 5.90781 11.0695 5.90781 11.1364C5.90475 11.2029 5.92312 11.3719 6.11606 11.4721L9.24812 13.108C9.44106 13.2078 9.60994 13.1385 9.67425 13.1053C9.73856 13.0692 9.88556 12.9667 9.87944 12.7668L9.85581 12.2807C9.84487 12.0599 10.11 11.917 10.3196 12.0306L11.1285 12.4688C11.2191 12.5178 11.2781 12.6065 11.2786 12.7023C11.2812 13.4366 11.0406 13.9793 10.4617 14.2947Z" fill="#000100"/>
<path d="M16.6252 8.00852C16.6129 8.65729 16.2266 9.22848 15.5922 9.53644L12.5704 11.0034C12.2607 11.153 11.9299 11.2278 11.6018 11.2278C11.2706 11.2278 10.946 11.1502 10.6546 11.0006C10.1029 10.7121 9.76296 10.1856 9.74153 9.58908C9.72928 9.20631 10.0605 8.88489 10.4831 8.87381H10.5299C10.9477 8.87381 11.2492 9.18533 11.2745 9.56296C11.282 9.6726 11.3305 9.75256 11.4207 9.80006C11.537 9.86102 11.6963 9.85271 11.8468 9.78066L14.8686 8.31648C15.0677 8.2195 15.0891 8.05325 15.0922 7.98635C15.0922 7.91708 15.0738 7.75083 14.8808 7.65069L11.7518 6.01471C11.5589 5.91496 11.387 5.98423 11.3257 6.01748C11.2614 6.0535 11.1144 6.15325 11.1205 6.35591C11.1341 6.53048 11.1455 6.67377 11.1547 6.79133C11.1722 7.01696 10.9 7.16539 10.6878 7.04664L9.87934 6.59381C9.79315 6.54552 9.73584 6.462 9.73278 6.37056C9.71265 5.75662 9.91784 5.16446 10.5387 4.828C11.1547 4.4951 11.8932 4.48956 12.5183 4.81414L15.6473 6.45012C16.2695 6.77471 16.6343 7.35698 16.6252 8.00852Z" fill="#000100"/>
</svg>
