<svg width="25" height="24" viewBox="0 0 25 24" fill="none" xmlns="http://www.w3.org/2000/svg">
<path d="M12.6149 16.8891C15.3149 16.8891 17.5038 14.7002 17.5038 12.0002C17.5038 9.30015 15.3149 7.11133 12.6149 7.11133C9.91489 7.11133 7.72607 9.30015 7.72607 12.0002C7.72607 14.7002 9.91489 16.8891 12.6149 16.8891Z" stroke="#2C2B2A" stroke-width="1.6" stroke-linecap="round" stroke-linejoin="round"/>
<path d="M1.61493 16.8888V7.11109C1.61493 3.73603 4.35096 1 7.72602 1H17.5038C20.8788 1 23.6148 3.73603 23.6148 7.11109V16.8888C23.6148 20.2639 20.8788 22.9999 17.5038 22.9999H7.72602C4.35096 22.9999 1.61493 20.2639 1.61493 16.8888Z" stroke="#2C2B2A" stroke-width="1.6"/>
<path d="M19.337 5.2912L19.3502 5.27661" stroke="#2C2B2A" stroke-width="1.6" stroke-linecap="round" stroke-linejoin="round"/>
</svg>
