<svg width="24" height="22" viewBox="0 0 24 22" fill="none" xmlns="http://www.w3.org/2000/svg">
<path d="M22.3075 1.5342C22.3075 1.5342 20.3399 2.78122 19.2457 3.13467C18.6584 2.41029 17.878 1.89686 17.0099 1.66383C16.1418 1.43081 15.2279 1.48942 14.3919 1.83176C13.5559 2.17409 12.8379 2.78362 12.3354 3.5779C11.8327 4.37219 11.5697 5.31291 11.5817 6.27285V7.31891C9.86806 7.36656 8.17013 6.95886 6.63901 6.13209C5.10788 5.30532 3.79112 4.08515 2.80598 2.58026C2.80598 2.58026 -1.09431 11.9948 7.68135 16.1791C5.67322 17.6413 3.281 18.3746 0.855835 18.2712C9.6315 23.5015 20.3573 18.2712 20.3573 6.24147C20.3564 5.95009 20.3303 5.65943 20.2793 5.37324C21.2745 4.32037 22.3075 1.5342 22.3075 1.5342Z" fill="#2C2B2A" stroke="#2C2B2A" stroke-width="1.6" stroke-linecap="round" stroke-linejoin="round"/>
</svg>
