<svg width="21" height="19" viewBox="0 0 21 19" fill="none" xmlns="http://www.w3.org/2000/svg">
<path d="M19.7167 19L12.0458 12.0597C11.4625 12.5171 10.7823 12.8734 10.0054 13.1285C9.22838 13.3836 8.40159 13.5111 7.525 13.5111C5.42185 13.5111 3.6419 12.8514 2.18514 11.5319C0.728379 10.2125 0 8.62037 0 6.75556C0 4.89074 0.729167 3.29861 2.1875 1.97917C3.64583 0.659722 5.41042 0 7.48125 0C9.55208 0 11.3118 0.659722 12.7604 1.97917C14.209 3.29861 14.9333 4.89206 14.9333 6.75951C14.9333 7.51336 14.7972 8.24213 14.525 8.94583C14.2528 9.64954 13.8444 10.3093 13.3 10.925L21 17.8389L19.7167 19ZM7.49583 11.9278C9.0757 11.9278 10.4186 11.422 11.5245 10.4104C12.6304 9.39884 13.1833 8.18056 13.1833 6.75556C13.1833 5.33056 12.6304 4.11227 11.5245 3.10069C10.4186 2.08912 9.0757 1.58333 7.49583 1.58333C5.89978 1.58333 4.54312 2.08912 3.42586 3.10069C2.30862 4.11227 1.75 5.33056 1.75 6.75556C1.75 8.18056 2.30862 9.39884 3.42586 10.4104C4.54312 11.422 5.89978 11.9278 7.49583 11.9278Z" fill="black"/>
</svg>
