<svg width="20" height="17" viewBox="0 0 20 17" fill="none" xmlns="http://www.w3.org/2000/svg">
<path d="M9.99999 8.07211C8.66729 8.07211 7.57691 7.70384 6.72883 6.9673C5.88075 6.23076 5.45672 5.28379 5.45672 4.12637C5.45672 2.96895 5.88075 2.02198 6.72883 1.28544C7.57691 0.548902 8.66729 0.180634 9.99999 0.180634C11.3327 0.180634 12.4231 0.548902 13.2711 1.28544C14.1192 2.02198 14.5433 2.96895 14.5433 4.12637C14.5433 5.28379 14.1192 6.23076 13.2711 6.9673C12.4231 7.70384 11.3327 8.07211 9.99999 8.07211ZM0.307678 16.516V14.0433C0.307678 13.3769 0.499505 12.807 0.883159 12.3335C1.26681 11.86 1.76152 11.5005 2.36729 11.255C3.72018 10.7289 5.01753 10.3343 6.25936 10.0713C7.50119 9.80823 8.74806 9.67671 9.99999 9.67671C11.2519 9.67671 12.4937 9.81261 13.7255 10.0844C14.9572 10.3562 16.2487 10.7481 17.6 11.2601C18.232 11.5078 18.7388 11.867 19.1202 12.3377C19.5016 12.8084 19.6923 13.3769 19.6923 14.0433V16.516H0.307678ZM2.12499 14.9377H17.875V14.0433C17.875 13.7627 17.7791 13.4953 17.5872 13.241C17.3954 12.9867 17.1582 12.7982 16.8755 12.6755C15.5832 12.1318 14.4019 11.7592 13.3317 11.5575C12.2615 11.3558 11.1509 11.255 9.99999 11.255C8.84902 11.255 7.72835 11.3558 6.63797 11.5575C5.54758 11.7592 4.36633 12.1318 3.09422 12.6755C2.81152 12.7982 2.57931 12.9867 2.39758 13.241C2.21585 13.4953 2.12499 13.7627 2.12499 14.0433V14.9377ZM9.99999 6.49381C10.7875 6.49381 11.4387 6.27022 11.9536 5.82304C12.4685 5.37585 12.7259 4.8103 12.7259 4.12637C12.7259 3.44244 12.4685 2.87689 11.9536 2.4297C11.4387 1.98252 10.7875 1.75893 9.99999 1.75893C9.21249 1.75893 8.56128 1.98252 8.04638 2.4297C7.53148 2.87689 7.27402 3.44244 7.27402 4.12637C7.27402 4.8103 7.53148 5.37585 8.04638 5.82304C8.56128 6.27022 9.21249 6.49381 9.99999 6.49381Z" fill="black"/>
</svg>
